<?xml version="1.0" encoding="UTF-8"?>
<svg xmlns="http://www.w3.org/2000/svg" xmlns:xlink="http://www.w3.org/1999/xlink" viewBox="0 0 48 48" version="1.1" width="48px" height="48px">
<g id="surface1">
<path style=" fill:#00C300;" d="M 12.5 42 L 35.5 42 C 39.089844 42 42 39.089844 42 35.5 L 42 12.5 C 42 8.910156 39.089844 6 35.5 6 L 12.5 6 C 8.910156 6 6 8.910156 6 12.5 L 6 35.5 C 6 39.089844 8.910156 42 12.5 42 Z "/>
<path style=" fill:#FFFFFF;" d="M 37.113281 22.417969 C 37.113281 16.550781 31.234375 11.78125 24.007813 11.78125 C 16.777344 11.78125 10.898438 16.550781 10.898438 22.417969 C 10.898438 27.675781 15.5625 32.078125 21.859375 32.910156 C 22.285156 33.003906 22.867188 33.195313 23.015625 33.558594 C 23.148438 33.890625 23.101563 34.40625 23.058594 34.742188 C 23.058594 34.742188 22.902344 35.667969 22.871094 35.863281 C 22.8125 36.195313 22.605469 37.160156 24.003906 36.570313 C 25.402344 35.984375 31.554688 32.128906 34.304688 28.960938 L 34.300781 28.960938 C 36.203125 26.878906 37.113281 24.765625 37.113281 22.417969 Z M 18.875 25.90625 L 16.269531 25.90625 C 15.890625 25.90625 15.585938 25.597656 15.585938 25.21875 L 15.585938 20.011719 C 15.585938 19.632813 15.890625 19.324219 16.269531 19.324219 C 16.648438 19.324219 16.957031 19.632813 16.957031 20.011719 L 16.957031 24.53125 L 18.875 24.53125 C 19.253906 24.53125 19.5625 24.839844 19.5625 25.21875 C 19.5625 25.597656 19.253906 25.90625 18.875 25.90625 Z M 21.566406 25.21875 C 21.566406 25.597656 21.261719 25.90625 20.882813 25.90625 C 20.503906 25.90625 20.195313 25.597656 20.195313 25.21875 L 20.195313 20.011719 C 20.195313 19.632813 20.503906 19.324219 20.882813 19.324219 C 21.261719 19.324219 21.566406 19.632813 21.566406 20.011719 Z M 27.839844 25.21875 C 27.839844 25.515625 27.648438 25.777344 27.367188 25.871094 C 27.296875 25.894531 27.222656 25.90625 27.148438 25.90625 C 26.933594 25.90625 26.730469 25.804688 26.601563 25.632813 L 23.933594 21.996094 L 23.933594 25.21875 C 23.933594 25.597656 23.625 25.90625 23.242188 25.90625 C 22.863281 25.90625 22.554688 25.597656 22.554688 25.21875 L 22.554688 20.011719 C 22.554688 19.714844 22.746094 19.453125 23.027344 19.359375 C 23.097656 19.335938 23.171875 19.324219 23.242188 19.324219 C 23.457031 19.324219 23.664063 19.425781 23.792969 19.597656 L 26.464844 23.234375 L 26.464844 20.011719 C 26.464844 19.632813 26.773438 19.324219 27.152344 19.324219 C 27.53125 19.324219 27.839844 19.632813 27.839844 20.011719 Z M 32.050781 21.925781 C 32.429688 21.925781 32.738281 22.234375 32.738281 22.613281 C 32.738281 22.992188 32.433594 23.300781 32.050781 23.300781 L 30.136719 23.300781 L 30.136719 24.53125 L 32.050781 24.53125 C 32.429688 24.53125 32.738281 24.839844 32.738281 25.21875 C 32.738281 25.597656 32.429688 25.90625 32.050781 25.90625 L 29.449219 25.90625 C 29.070313 25.90625 28.761719 25.597656 28.761719 25.21875 L 28.761719 22.617188 C 28.761719 22.613281 28.761719 22.613281 28.761719 22.613281 L 28.761719 20.011719 C 28.761719 19.632813 29.070313 19.324219 29.449219 19.324219 L 32.050781 19.324219 C 32.429688 19.324219 32.738281 19.632813 32.738281 20.011719 C 32.738281 20.390625 32.433594 20.699219 32.050781 20.699219 L 30.136719 20.699219 L 30.136719 21.929688 L 32.050781 21.929688 Z "/>
</g>
</svg>
